<?xml version="1.0" encoding="UTF-8"?>
<svg id="Layer_2" data-name="Layer 2" xmlns="http://www.w3.org/2000/svg" viewBox="0 0 142.22 100.39">
  <defs>
    <style>
      .cls-1 {
        fill: #fff;
      }
    </style>
  </defs>
  <g id="Layer_1-2" data-name="Layer 1">
    <g>
      <path d="M127.38,27.76c4.29-6.31,8.58-12.62,12.87-18.92l-15.77,13.72c-6.59-9.82-17.76-16.45-29.02-19.49-8.06-2.07-16.67-2.14-24.93-2.53-4.65-.17-9.54-.41-14.12-.54-6,0-10.44-.3-12.93,2.84l-.06.09c-1.53,2.09-1.78,5.16-1.89,7.92-.12,3.13-.07,6.69-.08,10.32,0,4.73-.01,10.05,0,14.91-.05,10.51.73,22.5,5.47,31.89,4.11,7.96,11.5,14.91,20.03,18.93,0,0,0,.02,0,.02-.46,1.62-1.16,7.25-1.44,9.22-.14.99-.37,2.46-.73,4.25.13-.17.35-.43.62-.76.18-.22.32-.39.44-.53.41-.5.5-.6.69-.83.19-.23.54-.66.94-1.18,0,0,.42-.54.82-1.1,1.07-1.47,2.47-3.83,2.96-4.66.49-.82.93-1.56,1.32-2.24,2.56.77,5.18,1.26,7.81,1.42,19.18,1.81,38.8-7.56,46.57-25.96,4.2-10.03,5.39-21.86,2.02-32.54-.44-1.46-.97-2.87-1.59-4.23Z"/>
      <path class="cls-1" d="M84.97,34.09c-1.88,8.79-1.95,19.33-8.9,25.94.73,2.53,1.12,5.17,1.23,7.79,9.24-3.16,8.35-5.12,9.13-13.79-.17-6.2.54-14.58-.78-20.67-.22.24-.45.49-.67.73Z"/>
      <path class="cls-1" d="M94.51,26.84c.7-1.15,1.99-2.04,3.23-2.72,6.99-3.81,13.99-7.68,21-11.46,6.97-3.38,14.82-4.88,22.2-7.04,1.98-.37,1.3.63.37,1.62-7.63,7.53-15.81,14.95-24.46,22.45-3.43,3.28-7.77,5.81-10.55,9.62-.81,1.32-1.18,2.88-1.33,4.44-.74,9.27-1.41,18.61-2.13,27.88-.1.94-.19,2.35-.78,2.85-2.81.69-6.26-11.65-7.3-14.16-3.03-9.24-5.74-19.23-5.2-28.95.06-.81.17-1.47.37-1.85.52-1.24,2.19.68,2.99,0,.49-.36.85-1.46,1.5-2.53l.09-.14Z"/>
      <path class="cls-1" d="M39.48,52.19c4.26-3.25,18.05-13.74,22.24-16.69,3.1-1.71,8.31-4.47,11.13-6,1.4-.74,3.54-2.07,4.62-.59.42.48.74,1.26,1.37,1.44.83.21,2.08-.73,2.58-.5,1.13.69-1.08,4.39-1.49,5.86-2.46,6.21-5.09,12.39-6.85,18.85-.71,3.34-3.08,14.73-4.18,20.02-.69,3.91-2.99,19.09-3.88,24.68-.07.54-.15.75-.24.76-.25.01-.56-1.57-.67-2.2-3.14-16.51-3.25-24.21-3.25-24.21-.18-11.66,1.1-22.74,1.1-22.74h0s.1-1.12-.31-1.47c-.44-.38-1.27-.22-2.13.13-2.96,1.14-5.82,2.41-8.66,3.96-2.91,1.5-5.75,3.26-8.54,4.98-.86.52-1.81,1.04-2.79.7-1.19-.45-2.73-1.9-3.16-3.15.14-.51.43-1.29,1.03-2.09.73-.97,1.58-1.51,2.08-1.78Z"/>
      <path class="cls-1" d="M93.22,20.72c.03-2.24,0-4.99.01-7.24,0-2.61.02-4.37-1.04-5.12l-.1-.07c-1.34-.9-4.49-.63-6.91-.68-3.97.05-8.59-.46-11.05,2.97-3.94,5.37.62,13.38,5.35,16.33,5.13,3.06,14.4.79,13.73-6.19ZM90.57,22.05c-.1.39-.25.98-.77,1.42-.8.67-1.85.46-2.26.39-.38-.07-1.29-.25-1.81-1.03-.4-.61-.49-1.49-.19-1.68.25-.16.58.31,1.48.52.11.03.82.18,1.61,0,1.16-.26,1.63-1.04,1.94-.84.27.18.08.91,0,1.23Z"/>
      <path d="M37.56,68.84c.32-2.66,5.48-4.4,3.4-7.41-1.51-2.07-4.04-4.54-5.91-6.65-.61-.63-1.26-1.32-2.03-1.66-1.95-.76-3.54,1.52-5.09,2.45-3.09,2.45-5.65-2.35-7.68-3.98-1.23-1.22-2.26-1.11-3.38-.04-3.62,3.29-12.47,11.3-16.13,14.75-.77.71-1.04,1.42-.26,2.23,3.01,3.38,17.64,19.29,21.81,23.87.79.82,1.45,1.74,2.56.77,3.93-3.58,12.91-11.38,17.19-15.86,1.26-2.67-4.72-5.5-4.49-8.32v-.14ZM31.15,56.04c.48-.05.96.68,1.95,1.71,1.64,1.85,3.73,3.91,4.7,5.22.19.36.1.62-.17.96-.48.57-1.31,1.27-1.92,1.83-.61.49-1.27,1.35-1.96,1.04-1.64-1.43-4.69-4.95-6.24-6.7-.51-.8.32-1.27.93-1.9.75-.63,1.84-1.85,2.61-2.14l.1-.02Z"/>
    </g>
  </g>
</svg>